TITLE ""
FILE "Step2_Track07.mp3" MP3
  TRACK 01 AUDIO
    TITLE "Step2_Track07_01"
    INDEX 01 00:00:00
  TRACK 02 AUDIO
    TITLE "Step2_Track07_02"
    INDEX 01 00:00:24
  TRACK 03 AUDIO
    TITLE "Step2_Track07_03"
    INDEX 01 00:01:61
  TRACK 04 AUDIO
    TITLE "Step2_Track07_04"
    INDEX 01 00:02:37
  TRACK 05 AUDIO
    TITLE "Step2_Track07_05"
    INDEX 01 00:03:30
  TRACK 06 AUDIO
    TITLE "Step2_Track07_06"
    INDEX 01 00:03:54
  TRACK 07 AUDIO
    TITLE "Step2_Track07_07"
    INDEX 01 00:05:51
  TRACK 08 AUDIO
    TITLE "Step2_Track07_08"
    INDEX 01 00:06:09
  TRACK 09 AUDIO
    TITLE "Step2_Track07_09"
    INDEX 01 00:07:10
  TRACK 10 AUDIO
    TITLE "Step2_Track07_10"
    INDEX 01 00:07:36
  TRACK 11 AUDIO
    TITLE "Step2_Track07_11"
    INDEX 01 00:09:60
  TRACK 12 AUDIO
    TITLE "Step2_Track07_12"
    INDEX 01 00:10:11
  TRACK 13 AUDIO
    TITLE "Step2_Track07_13"
    INDEX 01 00:11:08
  TRACK 14 AUDIO
    TITLE "Step2_Track07_14"
    INDEX 01 00:11:28
  TRACK 15 AUDIO
    TITLE "Step2_Track07_15"
    INDEX 01 00:13:36
  TRACK 16 AUDIO
    TITLE "Step2_Track07_16"
    INDEX 01 00:14:03
  TRACK 17 AUDIO
    TITLE "Step2_Track07_17"
    INDEX 01 00:15:04
  TRACK 18 AUDIO
    TITLE "Step2_Track07_18"
    INDEX 01 00:15:24
  TRACK 19 AUDIO
    TITLE "Step2_Track07_19"
    INDEX 01 00:18:40
  TRACK 20 AUDIO
    TITLE "Step2_Track07_20"
    INDEX 01 00:18:75
  TRACK 21 AUDIO
    TITLE "Step2_Track07_21"
    INDEX 01 00:20:07
  TRACK 22 AUDIO
    TITLE "Step2_Track07_22"
    INDEX 01 00:20:11
  TRACK 23 AUDIO
    TITLE "Step2_Track07_23"
    INDEX 01 00:23:09
  TRACK 24 AUDIO
    TITLE "Step2_Track07_24"
    INDEX 01 00:23:49
  TRACK 25 AUDIO
    TITLE "Step2_Track07_25"
    INDEX 01 00:24:54
  TRACK 26 AUDIO
    TITLE "Step2_Track07_26"
    INDEX 01 00:25:06
  TRACK 27 AUDIO
    TITLE "Step2_Track07_27"
    INDEX 01 00:27:74
  TRACK 28 AUDIO
    TITLE "Step2_Track07_28"
    INDEX 01 00:28:42
  TRACK 29 AUDIO
    TITLE "Step2_Track07_29"
    INDEX 01 00:29:43
  TRACK 30 AUDIO
    TITLE "Step2_Track07_30"
    INDEX 01 00:29:61
  TRACK 31 AUDIO
    TITLE "Step2_Track07_31"
    INDEX 01 00:32:42
  TRACK 32 AUDIO
    TITLE "Step2_Track07_32"
    INDEX 01 00:32:71
  TRACK 33 AUDIO
    TITLE "Step2_Track07_33"
    INDEX 01 00:33:65
  TRACK 34 AUDIO
    TITLE "Step2_Track07_34"
    INDEX 01 00:33:74
  TRACK 35 AUDIO
    TITLE "Step2_Track07_35"
    INDEX 01 00:36:26
  TRACK 36 AUDIO
    TITLE "Step2_Track07_36"
    INDEX 01 00:36:59
  TRACK 37 AUDIO
    TITLE "Step2_Track07_37"
    INDEX 01 00:37:64
  TRACK 38 AUDIO
    TITLE "Step2_Track07_38"
    INDEX 01 00:38:01
  TRACK 39 AUDIO
    TITLE "Step2_Track07_39"
    INDEX 01 00:40:49
  TRACK 40 AUDIO
    TITLE "Step2_Track07_40"
    INDEX 01 00:41:19
  TRACK 41 AUDIO
    TITLE "Step2_Track07_41"
    INDEX 01 00:42:19
  TRACK 42 AUDIO
    TITLE "Step2_Track07_42"
    INDEX 01 00:42:28
  TRACK 43 AUDIO
    TITLE "Step2_Track07_43"
    INDEX 01 00:45:36
